<?xml version="1.0" encoding="UTF-8" standalone="no"?>
<svg
   xmlns:dc="http://purl.org/dc/elements/1.1/"
   xmlns:cc="http://creativecommons.org/ns#"
   xmlns:rdf="http://www.w3.org/1999/02/22-rdf-syntax-ns#"
   xmlns:svg="http://www.w3.org/2000/svg"
   xmlns="http://www.w3.org/2000/svg"
   id="svg35"
   version="1.1"
   viewBox="0 0 26.193751 5.291667"
   height="20.000002"
   width="99">
  <defs
     id="defs29" />
  <metadata
     id="metadata32">
    <rdf:RDF>
      <cc:Work
         rdf:about="">
        <dc:format>image/svg+xml</dc:format>
        <dc:type
           rdf:resource="http://purl.org/dc/dcmitype/StillImage" />
        <dc:title></dc:title>
      </cc:Work>
    </rdf:RDF>
  </metadata>
  <g
     transform="translate(0.99983819,-291.35794)"
     id="layer1">
    <path
       id="path4557"
       transform="matrix(0.26458333,0,0,0.26458333,-0.99983819,291.35794)"
       d="M 6.5097656 0 C 4.4475244 0 2.8441007 0.65049823 1.7011719 1.953125 C 0.56652502 3.2464541 1.5746388e-17 5.0654381 0 7.4101562 L 0 19.525391 L 5.0429688 19.525391 L 5.0429688 14.990234 L 6.4980469 14.990234 L 6.4980469 9.9648438 L 5.0429688 9.9648438 L 5.0429688 7.5917969 C 5.0429687 6.2705748 5.4378105 5.6113281 6.2246094 5.6113281 C 6.6304318 5.6113281 6.9109995 5.7545404 7.0683594 6.0429688 C 7.2257192 6.3314223 7.3046875 6.8474567 7.3046875 7.5917969 L 7.3046875 19.525391 L 12.347656 19.525391 L 12.347656 7.2148438 C 12.347656 4.7584532 11.872363 2.9457966 10.919922 1.7734375 C 9.9674814 0.59175561 8.4974681 0 6.5097656 0 z M 51.53125 0.47460938 L 51.53125 13.71875 C 51.53125 15.747147 51.936401 17.301527 52.748047 18.380859 C 53.559693 19.460166 54.72805 20 56.251953 20 C 57.212676 20 58.019544 19.796117 58.673828 19.386719 C 59.328115 18.968023 59.942207 18.274326 60.513672 17.306641 C 61.441266 19.10242 62.783258 20 64.539062 20 C 65.99671 20 67.184203 19.460166 68.103516 18.380859 C 69.022828 17.301527 69.482422 15.905385 69.482422 14.193359 L 69.482422 0.47460938 L 64.439453 0.47460938 L 64.439453 12.867188 C 64.439453 13.872088 64.190284 14.375 63.693359 14.375 C 63.428316 14.375 63.251243 14.272958 63.160156 14.068359 C 63.06907 13.863635 63.023438 13.464618 63.023438 12.869141 L 63.023438 0.47460938 L 57.978516 0.47460938 L 57.978516 12.966797 C 57.978516 13.906564 57.7313 14.375 57.234375 14.375 C 56.969329 14.375 56.790305 14.277559 56.699219 14.082031 C 56.616397 13.886655 56.574219 13.481285 56.574219 12.867188 L 56.574219 0.47460938 L 51.53125 0.47460938 z M 86.042969 0.47460938 L 86.042969 12.072266 C 86.042969 14.202987 86.539351 15.937526 87.533203 17.277344 C 88.104668 18.049627 88.82913 18.665182 89.707031 19.121094 C 90.593217 19.577031 91.50014 19.804688 92.427734 19.804688 C 94.274638 19.804688 95.832447 19.106591 97.099609 17.710938 C 98.366769 16.315259 99 14.598241 99 12.560547 C 99 10.569391 98.375595 8.8674242 97.125 7.453125 C 95.882687 6.0388762 94.386194 5.3320312 92.638672 5.3320312 C 92.357082 5.3320312 91.943105 5.3600786 91.396484 5.4160156 L 91.396484 11.166016 C 91.835436 10.831049 92.224888 10.662109 92.564453 10.662109 C 93.044813 10.662109 93.451917 10.859222 93.783203 11.25 C 94.114486 11.631506 94.279297 12.104291 94.279297 12.671875 C 94.279297 13.220814 94.10027 13.691253 93.744141 14.082031 C 93.396293 14.463537 92.970051 14.654297 92.464844 14.654297 C 91.280504 14.654297 90.689453 13.728544 90.689453 11.876953 L 90.689453 0.47460938 L 86.042969 0.47460938 z M 20.919922 5.3027344 C 19.081297 5.3027344 17.528879 6.0052051 16.261719 7.4101562 C 15.002841 8.8151578 14.373047 10.536549 14.373047 12.574219 C 14.373047 14.621211 14.999404 16.338228 16.25 17.724609 C 17.500596 19.110965 19.044188 19.804688 20.882812 19.804688 C 22.390153 19.804688 23.762062 19.26048 24.996094 18.171875 L 22.349609 14.599609 C 21.91894 15.120655 21.47161 15.380859 21.007812 15.380859 C 20.436348 15.380859 19.971364 15.101255 19.615234 14.542969 C 19.267387 13.984733 19.09375 13.254114 19.09375 12.351562 C 19.09375 11.486252 19.276213 10.779433 19.640625 10.230469 C 20.005037 9.6721821 20.476894 9.3925781 21.056641 9.3925781 C 21.926261 9.3925781 22.443733 9.9085874 22.609375 10.941406 L 20.25 10.941406 C 20.100923 11.38802 20.025391 11.845337 20.025391 12.310547 C 20.025391 12.645514 20.079834 13.012034 20.1875 13.412109 L 27.232422 13.412109 C 27.265551 12.96542 27.28125 12.640145 27.28125 12.435547 C 27.28125 10.42577 26.669109 8.7369013 25.443359 7.3691406 C 24.225892 5.9920824 22.717136 5.3027344 20.919922 5.3027344 z M 78.066406 5.3027344 C 76.227782 5.3027344 74.675363 6.0052051 73.408203 7.4101562 C 72.149323 8.8151578 71.519531 10.536549 71.519531 12.574219 C 71.519531 14.621211 72.145887 16.338228 73.396484 17.724609 C 74.64708 19.110965 76.190673 19.804688 78.029297 19.804688 C 79.536638 19.804688 80.908547 19.26048 82.142578 18.171875 L 79.496094 14.599609 C 79.065424 15.120655 78.618095 15.380859 78.154297 15.380859 C 77.582835 15.380859 77.117849 15.101255 76.761719 14.542969 C 76.413869 13.984733 76.240234 13.254114 76.240234 12.351562 C 76.240234 11.486252 76.422697 10.779433 76.787109 10.230469 C 77.151524 9.6721821 77.623381 9.3925781 78.203125 9.3925781 C 79.072744 9.3925781 79.590215 9.9085874 79.755859 10.941406 L 77.396484 10.941406 C 77.24742 11.38802 77.171875 11.845337 77.171875 12.310547 C 77.171875 12.645514 77.226318 13.012034 77.333984 13.412109 L 84.378906 13.412109 C 84.41204 12.96542 84.427734 12.640145 84.427734 12.435547 C 84.427734 10.42577 83.815595 8.7369013 82.589844 7.3691406 C 81.372377 5.9920824 79.863622 5.3027344 78.066406 5.3027344 z M 34.548828 5.3183594 C 32.917256 5.3183594 31.612053 5.9169103 30.634766 7.1171875 C 29.657479 8.308167 29.169922 9.9101707 29.169922 11.919922 L 29.169922 19.525391 L 33.816406 19.525391 L 33.816406 12.923828 C 33.816406 11.472313 34.237258 10.746094 35.082031 10.746094 C 35.347058 10.746094 35.641842 10.850089 35.964844 11.054688 L 35.964844 5.4707031 C 35.385097 5.3684039 34.91324 5.3183594 34.548828 5.3183594 z M 43.195312 5.3183594 C 41.32356 5.3183594 39.750052 6.0145027 38.474609 7.4101562 C 37.199167 8.7965374 36.560547 10.509181 36.560547 12.546875 C 36.560547 14.547354 37.199167 16.260022 38.474609 17.683594 C 39.750052 19.097868 41.28677 19.804688 43.083984 19.804688 C 44.881198 19.804688 46.412528 19.097868 47.679688 17.683594 C 48.955132 16.269295 49.59375 14.556626 49.59375 12.546875 C 49.59375 10.565017 48.963958 8.8674242 47.705078 7.453125 C 46.454483 6.0295533 44.951117 5.3183594 43.195312 5.3183594 z M 43.070312 10.466797 C 43.575519 10.466797 44.003715 10.672633 44.351562 11.082031 C 44.699413 11.482132 44.873047 11.974367 44.873047 12.560547 C 44.873047 13.137429 44.694023 13.631617 44.337891 14.041016 C 43.990043 14.450414 43.567237 14.654297 43.070312 14.654297 C 42.58167 14.654297 42.160817 14.450414 41.804688 14.041016 C 41.456837 13.631617 41.28125 13.137429 41.28125 12.560547 C 41.28125 11.974367 41.456837 11.482132 41.804688 11.082031 C 42.152535 10.672633 42.573388 10.466797 43.070312 10.466797 z "
       style="font-style:normal;font-variant:normal;font-weight:normal;font-stretch:normal;font-size:7.13509941px;line-height:1.25;font-family:'Bauhaus 93';-inkscape-font-specification:'Bauhaus 93, ';letter-spacing:0px;word-spacing:0px;fill:#1eb7ff;fill-opacity:1;stroke:none;stroke-width:1.07364583" />
    <flowRoot
       style="fill:black;fill-opacity:1;stroke:none;font-family:'Bauhaus 93';font-style:normal;font-weight:normal;font-size:40px;line-height:1.25;letter-spacing:0px;word-spacing:0px;-inkscape-font-specification:'Bauhaus 93, ';font-stretch:normal;font-variant:normal"
       id="flowRoot4549"
       xml:space="preserve"><flowRegion
         id="flowRegion4551"><rect
           y="-40.634403"
           x="-11.667262"
           height="91.747108"
           width="130.81476"
           id="rect4553" /></flowRegion><flowPara
         id="flowPara4555"></flowPara></flowRoot>  </g>
</svg>
